PathFileType	4	(X/Y/Z)	1_2_rein_116_p1_0-167.trc
DataRate	CameraRate	NumFrames	NumMarkers	Units	OrigDataRate	OrigDataStartFrame	OrigNumFrames
60.0	60.0	6	27	m	60.0	0	168
Frame#	Time	RHip			RKnee			RAnkle			RBigToe			RSmallToe			RHeel			LHip			LKnee			LAnkle			LBigToe			LSmallToe			LHeel			Neck			Head			Nose			RShoulder			RElbow			RWrist			RThumb			RIndex			RPinky			LShoulder			LElbow			LWrist			LThumb			LIndex			LPinky			
		X1	Y1	Z1	X2	Y2	Z2	X3	Y3	Z3	X4	Y4	Z4	X5	Y5	Z5	X6	Y6	Z6	X7	Y7	Z7	X8	Y8	Z8	X9	Y9	Z9	X10	Y10	Z10	X11	Y11	Z11	X12	Y12	Z12	X13	Y13	Z13	X14	Y14	Z14	X15	Y15	Z15	X16	Y16	Z16	X17	Y17	Z17	X18	Y18	Z18	X19	Y19	Z19	X20	Y20	Z20	X21	Y21	Z21	X22	Y22	Z22	X23	Y23	Z23	X24	Y24	Z24	X25	Y25	Z25	X26	Y26	Z26	X27	Y27	Z27	
0	0.0	0.3755176569064639	0.25215308644620504	1.1140203325954159	0.35982178201961684	0.34798473998902785	1.5168931916683972	0.34389585536625006	0.41248833216099035	1.9629272886275526	0.33437625116685316	0.19179662032933126	1.9873784491434043	0.38698128622952843	0.22541234199206092	1.9941259524124677	0.3318801555157351	0.4715744932617812	2.0121529021614446	0.13650115178609631	0.2694264293390471	1.1267393085726922	0.1697686025086708	0.3053863001845456	1.5081777324958245	0.1952491043314553	0.3767682311733602	1.9313706376159103	0.16617211558994419	0.22267700505140037	2.0062571294516465	0.13063431282722685	0.22738940414579675	1.9737134106975607	0.2115301282528178	0.445702462727984	1.9962736270219967	0.2527965567843164	0.1907358544634353	0.46344311421094153	0.25480790697176786	0.11039094100388044	0.21579852195513846	0.2449859721406016	0.06658932998850932	0.35857933904524275	0.44373628056599795	0.16904901280543957	0.5499672301306798	0.4764942531409281	0.1368930635908237	0.8638595435607115	0.3120052240846707	0.04626245043164015	1.039237530990938	0.26931790773710684	-0.003733531119797517	1.1149276369979486	0.24974325624071655	0.03002097313575804	1.1350815795034637	0.24747744805888314	0.05556170560272855	1.137464111149162	0.09282609180973045	0.24113865617211996	0.5628030042393669	0.06089728958134437	0.16753454499716405	0.8449451246713784	0.18136270110051667	0.016797743803941407	1.0368048901862146	0.29224483108899063	0.0011855641238347693	1.0871498476562407	0.28968970571754465	-0.009343388509405146	1.111044885187679	0.2383344465512562	0.039775814505907094	1.153004000907148
1	0.016666666666666666	0.3718593895966418	0.2402407347112648	1.111601672099471	0.35667219750306267	0.36373851672339974	1.5325892512497572	0.34810172482769014	0.4255663433596456	1.9689599164900733	0.33492713809028396	0.19221653772209152	1.988139747297083	0.39276122091316806	0.2358986401899344	2.003318850762436	0.33367762155708924	0.47200112733332295	2.02104793555205	0.13680099570297768	0.267683874835752	1.1297788407097882	0.16977198048798448	0.30546496167408527	1.508406014256861	0.19576963824313579	0.3788278399999837	1.9406592123566508	0.17061786451844874	0.20682127889281657	2.0010954308472093	0.12560437987339185	0.22423651342993886	1.9759525770639728	0.21109603946621158	0.4450326265957187	2.0001613793454305	0.25672106903192043	0.19250614189770024	0.4632577554713035	0.25482452825691565	0.11030829595439395	0.21582502060867026	0.24843289191001694	0.07631600972440049	0.35812317104623564	0.44408210239396856	0.1706615274759249	0.5536754800853608	0.47921602083006754	0.12531828612192666	0.8581201172117855	0.30772006544492786	0.043934909436029436	1.0389043495746726	0.26625776116836347	-0.0038371779155851925	1.1150255432932479	0.2540474042892545	0.018088422670930825	1.1317923159453385	0.2474603366699349	0.055042914279682	1.137690592541621	0.0888888608035803	0.23889071450982502	0.5629503658255941	0.06459884557635516	0.1697486510557765	0.84522846087857	0.18123011363434674	0.016757287886999202	1.0367489629478872	0.28778864614974725	-0.000493179855593607	1.0865608206100765	0.28905716368376455	-0.00959465219729909	1.111078292312446	0.23383328594455963	0.05311327128396869	1.1534977160262054
2	0.03333333333333333	0.37184936332019697	0.24010525815771708	1.1115700878670904	0.3602556623527681	0.3446840720986388	1.524372304948412	0.34804816364475416	0.42563389373957133	1.9689791997205828	0.33431446880067256	0.19184000529505618	1.9871454451346962	0.39177902434356787	0.23466588281160577	2.0022352242649286	0.33332526985779437	0.4740930308269983	2.0179837793452284	0.1368168334153048	0.26756459769707563	1.129752824516365	0.1696961702609476	0.3053271099568409	1.5081513809640135	0.1958197310418088	0.37872906217393554	1.940535832233901	0.17081231698587937	0.20721624118887672	2.000336219832446	0.13031242236587082	0.22791629309631956	1.9735726988659352	0.21115544090863309	0.4453129340853963	2.000122155593067	0.25671115784296894	0.1926661480091853	0.4632857136723648	0.25484763655861653	0.11031953817968541	0.21584798319361834	0.2484434246145419	0.07636595657975381	0.35815685963381766	0.444055905971655	0.17070966617718622	0.5536706998202559	0.4761125998900604	0.13851112364812307	0.860809334441182	0.30452724540384063	0.034590163985971194	1.0373768793547418	0.2664030349012036	-0.004668181478744211	1.1179238226956358	0.24967178351654312	0.029919913085259472	1.1357966897986003	0.2435950926445513	0.0666942126694109	1.141671768412552	0.0888766629467422	0.2388202379034262	0.5629888821938281	0.06086142552926201	0.16771826719393207	0.8450250693794538	0.18136947626067595	0.016941905990627452	1.0368974101636221	0.2882072588720002	-0.0007254456467555834	1.0870789227859896	0.2888678691077564	-0.009179585747560226	1.1115885388478246	0.2338480660046102	0.05320074608223456	1.1534704573910017
3	0.05	0.3756060351930399	0.2263652846620507	1.1076657950039552	0.3612236880347864	0.34520522670813764	1.5334367463947176	0.34396852094251584	0.41279682695776926	1.963140171770849	0.3375755097672323	0.1955448559304961	1.9858667833752417	0.3925119751094953	0.23812344319195883	1.9952291398865964	0.3331504445775236	0.47419209743338564	2.018351393172996	0.13663351898371448	0.26757424779842864	1.129567183822602	0.16981723711050709	0.30396751907848185	1.5117857645045913	0.1945863150698516	0.3771029824984653	1.9358502531896518	0.17142965288680848	0.17808116561973777	1.9837504678074678	0.12993475896869497	0.22658032842765227	1.976595084094494	0.21118673589777195	0.4462763488649849	2.000830503542788	0.25672233719523424	0.19287769262599674	0.4633505230748375	0.2548941697331772	0.11027310498422074	0.21589959756774943	0.2484042237171521	0.07638128724027406	0.3581722408751327	0.44405258198706044	0.17083428278875257	0.5536299752658621	0.4796191039305141	0.14911248916187134	0.862083904223998	0.3074657793324282	0.04456986893694331	1.03929781061657	0.26160350994146164	0.007753499935325557	1.1189857466042243	0.24521732539022076	0.0420095530351377	1.1395053196500402	0.24765422985949684	0.05494824126083513	1.1380814735599205	0.09280650424521068	0.24109904875441365	0.5628839904427609	0.06079620688343896	0.16760348792870233	0.8449892888344015	0.18137692737526778	0.016566135932498036	1.0366755920454045	0.2886441347912195	-0.0023326249827774438	1.0902980963099163	0.2890496461372781	-0.009593592679015453	1.1109851185841408	0.2341458000142123	0.05171582222909163	1.1567441378676162
4	0.06666666666666667	0.3716303842085102	0.24014852338311546	1.1116740805635033	0.3613259543640365	0.34663974850878637	1.5297945381790745	0.3474614479262828	0.4278135106849107	1.9656506552649768	0.3364623581400932	0.19657810352548882	1.9827641870994108	0.38631870786310485	0.22592236920901176	1.990412642875882	0.33272617981543134	0.4762052751069945	2.0151779005327457	0.1415094419298956	0.25422737311785976	1.1258500892206675	0.17414189681861175	0.3075549548560962	1.5089701454407216	0.19467029744545766	0.37695168617082103	1.9357558992711807	0.17441647302201874	0.19026580105405339	1.9897398131144695	0.12990583100036945	0.2267401696070431	1.9765747839723717	0.2111790588764065	0.44613461813802713	2.00068304501945	0.25670128136350284	0.19276825911686044	0.4633440642305188	0.254846084885931	0.1102285501750191	0.21585757411941073	0.2485099578539387	0.075714953395456	0.3611068700887306	0.44025047711296694	0.18562001303767808	0.5519083057006238	0.47953862414308934	0.1490869987239367	0.8620403741028195	0.30745643182663096	0.044570248507836564	1.039362128314151	0.2648491583371529	0.0073226440179648	1.118941699296202	0.24525904122100015	0.04181769218337091	1.13948523255742	0.24346123675725082	0.06672677948016928	1.1418987313180895	0.08885672182030505	0.23880200542260163	0.5629570491198934	0.06044508967167693	0.1686883984358993	0.8416256144415803	0.18130400513205638	0.01658913282130863	1.0367303647619601	0.2924150672731503	-0.00015234035545516934	1.0905693476458302	0.28925557898126353	-0.00891822275332512	1.1112836576900593	0.2341271236445091	0.052156730768535706	1.15731844172842
5	0.08333333333333333	0.37157277918022313	0.24013481416035615	1.1117177871288477	0.36129532430042016	0.346623366016484	1.529755038129553	0.3474660528073433	0.4279970958369009	1.96570453786877	0.33643084616388097	0.19845525980320794	1.9805936284337866	0.3868220468523568	0.22691751887301154	1.9908492099833761	0.3326083180686662	0.47616496477357145	2.0152341622051915	0.1415408373548698	0.25431852178093073	1.125902720188285	0.17032943759560323	0.3038010522178137	1.5116214209227883	0.19457319813947635	0.37684390450304656	1.9355157385061015	0.17185322687080026	0.18309104054714087	1.985429997317323	0.1299190672780408	0.22656648012661715	1.976439571593295	0.2132820347036019	0.4561555332835277	2.0017114881631772	0.2566629530840067	0.1927997964622298	0.46336909196768566	0.25484857119615933	0.1102222017165536	0.21585661781043503	0.24857490944799446	0.0757510521451704	0.3611171361758932	0.44020329824435794	0.18570025961120848	0.5518941492770628	0.47940588665051526	0.14940105607326992	0.8622152429087933	0.30740368779978916	0.044569923418440585	1.03938246697915	0.26178464325949424	0.007338737471227967	1.1191242459987338	0.24517959547312215	0.04187032275971482	1.1394627715332357	0.24339140742405052	0.06664902979249565	1.141769490935533	0.08885711006797772	0.23874421214888913	0.5629246967451468	0.060750485598559494	0.16766266028965449	0.8449106289427616	0.18134501842423817	0.016615840869057336	1.0366545384389423	0.2881848907699242	-0.0019033383372269155	1.0901652038018006	0.28906282451430504	-0.00920224464280977	1.1110682846752908	0.23403568700269053	0.052214201923192184	1.157244769063768
